<?xml version="1.0" encoding="utf-8" ?>
<svg baseProfile="full" height="100%" version="1.1" viewBox="-1690.0,-1785.0,3946.0,2690.0" width="100%" xmlns="http://www.w3.org/2000/svg" xmlns:ev="http://www.w3.org/2001/xml-events" xmlns:xlink="http://www.w3.org/1999/xlink"><defs><marker id="id1" markerHeight="100" markerUnits="strokeWidth" markerWidth="100" orient="auto" refX="9" refY="3" viewBox="-40,-40,80,80"><path d="M0,0 L0,6 L9,3 z" fill="#f00" /></marker></defs><image height="2690.0" width="3946.0" x="-1690.0" xlink:href="Map-MainLibrary.png" y="-1785.0" /><circle cx="-610.261" cy="-223.434" r="10" /><line marker-end="url(#id1)" stroke="blue" stroke-width="5" x1="-610.261" x2="-52.368" y1="-223.434" y2="-237.641" /><circle cx="-52.368" cy="-237.641" r="10" /><line marker-end="url(#id1)" stroke="blue" stroke-width="5" x1="-52.368" x2="729.451" y1="-237.641" y2="-204.666" /><circle cx="729.451" cy="-204.666" r="10" /><line marker-end="url(#id1)" stroke="blue" stroke-width="5" x1="729.451" x2="498.687" y1="-204.666" y2="-291.293" /><circle cx="498.687" cy="-291.293" r="10" /><line marker-end="url(#id1)" stroke="blue" stroke-width="5" x1="498.687" x2="171.433" y1="-291.293" y2="-329.969" /><circle cx="171.433" cy="-329.969" r="10" /><line marker-end="url(#id1)" stroke="blue" stroke-width="5" x1="171.433" x2="-148.318" y1="-329.969" y2="-407.112" /><circle cx="-148.318" cy="-407.112" r="10" /><line marker-end="url(#id1)" stroke="blue" stroke-width="5" x1="-148.318" x2="-43.717" y1="-407.112" y2="-791.54" /><circle cx="-43.717" cy="-791.54" r="10" /><line marker-end="url(#id1)" stroke="blue" stroke-width="5" x1="-43.717" x2="-296.979" y1="-791.54" y2="-746.506" /><circle cx="-296.979" cy="-746.506" r="10" /><line marker-end="url(#id1)" stroke="blue" stroke-width="5" x1="-296.979" x2="-381.281" y1="-746.506" y2="-705.684" /><circle cx="-381.281" cy="-705.684" r="10" /><line marker-end="url(#id1)" stroke="blue" stroke-width="5" x1="-381.281" x2="-592.001" y1="-705.684" y2="-843.923" /><circle cx="-592.001" cy="-843.923" r="10" /><line marker-end="url(#id1)" stroke="blue" stroke-width="5" x1="-592.001" x2="-915.372" y1="-843.923" y2="-802.415" /><circle cx="-915.372" cy="-802.415" r="10" /><line marker-end="url(#id1)" stroke="blue" stroke-width="5" x1="-915.372" x2="-967.144" y1="-802.415" y2="-799.008" /><circle cx="-967.144" cy="-799.008" r="10" /><line marker-end="url(#id1)" stroke="blue" stroke-width="5" x1="-967.144" x2="-779.08" y1="-799.008" y2="-791.673" /><circle cx="-779.08" cy="-791.673" r="10" /><line marker-end="url(#id1)" stroke="blue" stroke-width="5" x1="-779.08" x2="28.845" y1="-791.673" y2="-783.075" /><circle cx="28.845" cy="-783.075" r="10" /><line marker-end="url(#id1)" stroke="blue" stroke-width="5" x1="28.845" x2="-684.584" y1="-783.075" y2="-935.168" /><circle cx="-684.584" cy="-935.168" r="10" /><line marker-end="url(#id1)" stroke="blue" stroke-width="5" x1="-684.584" x2="-893.003" y1="-935.168" y2="-808.444" /><circle cx="-893.003" cy="-808.444" r="10" /><line marker-end="url(#id1)" stroke="blue" stroke-width="5" x1="-893.003" x2="-301.579" y1="-808.444" y2="-227.327" /><circle cx="-301.579" cy="-227.327" r="10" /><line marker-end="url(#id1)" stroke="blue" stroke-width="5" x1="-301.579" x2="251.695" y1="-227.327" y2="-353.237" /><circle cx="251.695" cy="-353.237" r="10" /><line marker-end="url(#id1)" stroke="blue" stroke-width="5" x1="251.695" x2="569.009" y1="-353.237" y2="-409.865" /><circle cx="569.009" cy="-409.865" r="10" /><line marker-end="url(#id1)" stroke="blue" stroke-width="5" x1="569.009" x2="572.798" y1="-409.865" y2="-411.42" /><circle cx="572.798" cy="-411.42" r="10" /><line marker-end="url(#id1)" stroke="blue" stroke-width="5" x1="572.798" x2="553.242" y1="-411.42" y2="-424.857" /><circle cx="553.242" cy="-424.857" r="10" /><line marker-end="url(#id1)" stroke="blue" stroke-width="5" x1="553.242" x2="576.418" y1="-424.857" y2="-418.129" /><circle cx="576.418" cy="-418.129" r="10" /></svg>